# xmcd
#
# Track frame offsets:
#	150
#	13643
#	26816
#	37956
#	54283
#	73094
#	84209
#	95582
#	109774
#	126361
#	140493
#	152685
#	166091
#	180736
#	195308
#	207699
#	223199
#	237622
#
# Disc length: 3329 seconds
#
# Revision: 0
# Processed by: cddbd v1.5.1PL0 Copyright (c) Steve Scherf et al.
# Submitted via: dBpowerAMP V4.0
#
DISCID=fd0cff12
DTITLE=Sidney Bechet - Sidney Bechet
DYEAR=1900
DGENRE=Blues
TTITLE0=Wild cat blues
TTITLE1=Maple leaf rag
TTITLE2=Jungle Drums
TTITLE3=Really the blues
TTITLE4=Summertime
TTITLE5=St Louis blues
TTITLE6=Strange fruit
TTITLE7=the mooche
TTITLE8=Muskrat rumblerack
TTITLE9=Tiger rag
TTITLE10=Les Oignons
TTITLE11=Mon homme
TTITLE12=Promenade aux Champs Elysees
TTITLE13=Si tu vois ma mere
TTITLE14=Le marchand de poissons
TTITLE15=Dans les rues d'Antibes
TTITLE16=Petire fleur
TTITLE17=September song
EXTD=
EXTT0=
EXTT1=
EXTT2=
EXTT3=
EXTT4=
EXTT5=
EXTT6=
EXTT7=
EXTT8=
EXTT9=
EXTT10=
EXTT11=
EXTT12=
EXTT13=
EXTT14=
EXTT15=
EXTT16=
EXTT17=
PLAYORDER=
